<svg width="633" height="642" viewBox="0 0 633 642" fill="none" xmlns="http://www.w3.org/2000/svg">
<g filter="url(#filter0_d_40_99)">
<path d="M484.015 179.759C510.517 179.759 532.001 157.145 532.001 129.249C532.001 101.353 510.517 78.7388 484.015 78.7388C457.514 78.7388 436.03 101.353 436.03 129.249C436.03 157.145 457.514 179.759 484.015 179.759Z" stroke="#263238" stroke-linecap="round" stroke-linejoin="round"/>
<path d="M484.015 169.59C505.182 169.59 522.34 151.529 522.34 129.249C522.34 106.969 505.182 88.9075 484.015 88.9075C462.849 88.9075 445.691 106.969 445.691 129.249C445.691 151.529 462.849 169.59 484.015 169.59Z" stroke="#263238" stroke-linecap="round" stroke-linejoin="round"/>
<path d="M484.015 169.59C505.182 169.59 522.34 151.529 522.34 129.249C522.34 106.969 505.182 88.9075 484.015 88.9075C462.849 88.9075 445.691 106.969 445.691 129.249C445.691 151.529 462.849 169.59 484.015 169.59Z" stroke="#263238" stroke-linecap="round" stroke-linejoin="round"/>
<path d="M470.406 119.515L484.015 129.249H517.483" stroke="#263238" stroke-width="2" stroke-linecap="round" stroke-linejoin="round"/>
<path d="M487.731 129.249C487.734 130.023 487.518 130.781 487.111 131.426C486.705 132.071 486.126 132.574 485.447 132.873C484.768 133.171 484.021 133.25 483.299 133.101C482.577 132.952 481.914 132.58 481.393 132.034C480.872 131.488 480.517 130.791 480.372 130.032C480.228 129.273 480.301 128.486 480.581 127.77C480.862 127.055 481.338 126.443 481.95 126.013C482.561 125.582 483.28 125.352 484.015 125.352C484.998 125.352 485.941 125.762 486.638 126.493C487.334 127.223 487.727 128.214 487.731 129.249V129.249Z" fill="white" stroke="#263238" stroke-linecap="round" stroke-linejoin="round"/>
<path d="M411.549 548.293C411.549 548.293 417.508 556.984 419.503 562.518C421.499 568.051 418.512 571.803 410.063 575.641C401.614 579.48 396.164 578.915 388.72 579.987C381.275 581.059 377.807 587.635 366.881 589.823C355.954 592.01 347.023 590.373 347.519 586.549C348.014 582.725 361.913 578.336 368.367 570.137C374.821 561.938 386.738 547.714 386.738 547.714L411.549 548.293Z" fill="white" stroke="#263238" stroke-linecap="round" stroke-linejoin="round"/>
<path d="M411.549 548.293L406.045 548.177L402.949 551.683C402.523 552.584 402.142 553.507 401.806 554.449C399.976 559.432 397.155 570.122 402.384 578.234C405.026 577.648 407.603 576.779 410.077 575.641C418.526 571.803 421.499 567.979 419.517 562.518C417.535 557.057 411.549 548.293 411.549 548.293Z" fill="#9E9E9E" stroke="#263238" stroke-linecap="round" stroke-linejoin="round"/>
<path d="M368.284 436.163C368.284 436.163 381.605 469.262 383.215 486.093C384.825 502.925 412.526 542.76 414.123 545.57C415.719 548.38 413.063 552.813 409.334 553.971C405.604 555.13 398.132 561.214 388.541 556.217C378.949 551.219 372.027 530.969 350.698 502.36C329.368 473.752 310.185 449.055 311.258 435.598C312.331 422.141 326.712 421.576 339.51 423.256C352.308 424.937 368.284 436.163 368.284 436.163Z" fill="#4F4F4F" stroke="#263238" stroke-linecap="round" stroke-linejoin="round"/>
<path d="M354.963 561.33C354.963 561.33 341.643 575.917 336.84 578.162C332.037 580.407 311.258 587.693 311.258 591.633C311.258 595.573 330.978 598.354 338.973 598.354C346.968 598.354 362.367 592.184 367.225 590.503C372.082 588.823 388.004 586.013 393.866 581.522C399.728 577.032 390.137 559.085 390.137 559.085L354.963 561.33Z" fill="white" stroke="#263238" stroke-linecap="round" stroke-linejoin="round"/>
<path d="M332.368 597.92C331.839 593.931 330.647 590.072 328.845 586.52C328.13 585.088 327.281 583.734 326.313 582.479C319.157 585.477 311.313 589.156 311.313 591.575C311.258 594.646 323.285 597.022 332.368 597.92Z" fill="#9E9E9E" stroke="#263238" stroke-linecap="round" stroke-linejoin="round"/>
<path d="M380.986 559.606C380.04 561.747 379.355 564.005 378.949 566.327C377.738 573.353 378.591 581.479 379.555 587.172C385.059 585.723 390.825 583.797 393.866 581.465C399.728 576.989 390.137 559.027 390.137 559.027L380.986 559.606Z" fill="#9E9E9E" stroke="#263238" stroke-linecap="round" stroke-linejoin="round"/>
<path d="M281.396 428.399C281.396 428.399 281.74 440.19 292.061 456.92C302.382 473.651 351.317 545.498 351.317 545.498C351.317 545.498 351.317 558.042 352.115 560.548C352.913 563.054 390.247 569.76 392.641 562.228C395.036 554.696 383.105 538.805 383.105 538.805L347.326 433.425C347.326 433.425 336.207 410.002 320.313 407.496C304.419 404.99 281.396 417.535 281.396 428.399Z" fill="#6B6B6B" stroke="#263238" stroke-linecap="round" stroke-linejoin="round"/>
<path d="M582.697 172.516L543.56 173.009C543.56 173.009 539.817 172.516 538.881 175.471C538.881 175.471 529.042 201.545 528.574 210.96C528.106 220.376 530.459 218.855 526.703 231.167C522.946 243.48 512.185 272.581 506.061 296.235C497.873 328.103 495.754 361.795 495.231 394.619C495.148 399.877 492.148 445.202 499.937 445.202C506.405 445.202 548.5 453.516 549.216 441.421C552.078 393.199 543.808 346.093 559.716 299.19C565.894 280.982 572.981 261.746 578.224 242.698C583.467 223.649 584.389 203.848 587.857 184.351C590.196 171.039 582.697 172.516 582.697 172.516Z" fill="#263238" stroke="#263238" stroke-linecap="round" stroke-linejoin="round"/>
<path d="M582.697 172.516L543.56 173.009C543.56 173.009 539.817 172.516 538.881 175.471C538.881 175.471 530.707 197.199 528.918 208.121C527.682 212.916 527.258 217.903 527.666 222.853C528.547 231.413 530.872 239.062 542.487 242.133C552.56 244.769 565.027 242.596 569.692 235.6C574.523 231.805 573.614 224.982 576.573 218.362C581.252 208.005 583.123 191.246 586.88 181.396C587.285 180.379 587.744 179.388 588.256 178.426C587.692 171.546 582.697 172.516 582.697 172.516Z" fill="#828282" stroke="#263238" stroke-linecap="round" stroke-linejoin="round"/>
<path d="M575.114 197.75C571.316 212.148 573.6 216.146 569.789 240.945C565.977 265.744 552.312 293.744 547 319.339C541.688 344.935 543.959 435.337 544.716 439.335C545.009 441.464 545.119 443.617 545.046 445.767C547.592 444.767 549.174 443.376 549.257 441.493C552.119 393.272 543.849 346.166 559.757 299.263C565.936 281.055 573.023 261.818 578.266 242.77C583.509 223.722 584.417 203.92 587.898 184.423C589.274 176.239 587.059 173.661 585.146 172.835V172.922C580.818 180.718 577.447 189.06 575.114 197.75V197.75Z" fill="#696969" stroke="#263238" stroke-linecap="round" stroke-linejoin="round"/>
<path d="M456.479 566.965L456.053 566.617V505.475H464.406V466.828H433.526V505.475H441.906V567.675L368.05 592.444V598.601C368.05 600.464 368.753 602.251 370.005 603.568C371.257 604.886 372.954 605.626 374.724 605.626C376.495 605.626 378.192 604.886 379.444 603.568C380.695 602.251 381.399 600.464 381.399 598.601V597.717L443.159 590.156V599.47C443.159 601.102 443.775 602.668 444.872 603.823C445.968 604.977 447.456 605.626 449.007 605.626C450.558 605.626 452.046 604.977 453.143 603.823C454.239 602.668 454.856 601.102 454.856 599.47V589.851L519.106 597.717V598.601C519.184 600.411 519.922 602.119 521.167 603.371C522.411 604.623 524.066 605.321 525.787 605.321C527.509 605.321 529.164 604.623 530.408 603.371C531.652 602.119 532.39 600.411 532.468 598.601V592.444L456.479 566.965Z" fill="#263238" stroke="#263238" stroke-linecap="round" stroke-linejoin="round"/>
<path d="M456.067 566.617V505.808H441.865V566.646H456.08L456.067 566.617Z" fill="white" stroke="#263238" stroke-linecap="round" stroke-linejoin="round"/>
<path d="M547.496 440.117H358.156C355.116 440.117 352.652 442.711 352.652 445.911V468.146C352.652 471.346 355.116 473.94 358.156 473.94H547.496C550.536 473.94 553 471.346 553 468.146V445.911C553 442.711 550.536 440.117 547.496 440.117Z" fill="#263238" stroke="#263238" stroke-linecap="round" stroke-linejoin="round"/>
<path d="M361.39 248.289C361.39 248.289 372.66 252.011 376.527 253.373C380.394 254.735 393.275 268.278 393.275 268.278C393.275 268.278 408.728 227.604 410.022 223.881C411.315 220.158 411.948 217.768 411.948 217.768C409.918 218.5 407.724 218.567 405.656 217.963C403.588 217.358 401.743 216.108 400.362 214.379C394.857 208.28 401.972 196.084 395.531 185.568C389.091 175.051 349.473 197.431 348.51 208.28C347.546 219.13 352.046 242.176 361.39 248.289Z" fill="white" stroke="#263238" stroke-linecap="round" stroke-linejoin="round"/>
<path d="M328.226 185.915C328.226 185.915 328.872 195.055 331.115 198.793C333.358 202.53 335.629 209.294 334.019 212.351C332.409 215.407 326.616 218.797 327.579 222.186C328.542 225.576 336.276 226.923 336.276 226.923L338.202 231.674C338.202 231.674 344.326 227.951 349.803 229.646C355.28 231.341 365.257 229.299 367.514 223.2C369.77 217.102 370.087 194.722 368.16 179.469C366.234 164.216 359.78 157.09 348.193 160.088C336.606 163.086 327.579 177.47 328.226 185.915Z" fill="white" stroke="#263238" stroke-linecap="round" stroke-linejoin="round"/>
<path d="M337.817 202.878C337.817 202.878 337.886 194.042 343.996 193.028" stroke="#263238" stroke-width="2" stroke-linecap="round" stroke-linejoin="round"/>
<path d="M343.9 205.297C344.601 207.223 344.505 209.048 343.666 209.381C342.826 209.715 341.601 208.44 340.913 206.484C340.225 204.529 340.308 202.733 341.134 202.385C341.959 202.037 343.184 203.384 343.9 205.297Z" fill="#263238"/>
<path d="M353.918 187.61C353.918 187.61 356.821 190.985 351.991 192.347" stroke="#263238" stroke-linecap="round" stroke-linejoin="round"/>
<path d="M357.785 187.61C357.785 187.61 356.821 192.68 360.674 192.68" stroke="#263238" stroke-linecap="round" stroke-linejoin="round"/>
<path d="M352.624 195.084C352.624 195.084 355.844 192.376 355.528 196.779" stroke="#263238" stroke-linecap="round" stroke-linejoin="round"/>
<path d="M361.005 195.432C361.005 195.432 357.785 195.084 357.785 196.446" stroke="#263238" stroke-linecap="round" stroke-linejoin="round"/>
<path d="M366.289 138.157C359.489 139.568 352.873 141.829 346.583 144.893C335.574 150.267 329.505 158.784 319.845 158.451C310.185 158.118 306.965 162.174 312.125 168.953C317.286 175.732 325.969 175.066 325.969 175.066C325.969 175.066 318.235 182.859 319.529 187.943C320.822 193.028 326.285 192.014 330.152 186.582C334.019 181.15 337.239 173.704 346.253 171.676C355.266 169.648 358.17 169.634 358.17 169.634C358.17 169.634 347.863 178.108 349.156 181.497C350.45 184.887 359.133 184.554 363 188.624C366.867 192.694 363.647 220.492 360.427 224.214C357.207 227.937 352.693 226.59 347.216 226.242C341.739 225.895 336.923 227.271 338.202 231.674C339.482 236.078 344.34 257.82 348.207 259.196C352.074 260.572 366.991 260.21 382.403 238.917C386.738 232.92 379.101 210.671 379.101 205.919C379.101 201.168 378.715 196.2 379.802 191.579C380.449 188.87 382.72 186.205 385.541 186.176C389.435 186.176 390.632 190.087 391.348 193.419C392.958 200.879 387.798 207.325 388.761 208.338C389.724 209.352 396.178 215.465 401.641 217.493C407.104 219.521 408.095 204.616 410.669 193.086C413.242 181.555 413.242 159.19 400.362 145.284C392.077 136.289 378.729 135.608 366.289 138.157Z" fill="#263238" stroke="#263238" stroke-linecap="round" stroke-linejoin="round"/>
<path d="M350.808 235.223C351.675 237.57 351.152 239.974 349.652 240.583C348.152 241.191 346.225 239.8 345.358 237.454C344.491 235.107 345.014 232.717 346.528 232.109C348.042 231.5 349.954 232.891 350.808 235.223Z" fill="white"/>
<path d="M396.507 214.054C403.359 206.841 403.359 195.148 396.507 187.935C389.655 180.723 378.546 180.723 371.694 187.935C364.842 195.148 364.842 206.841 371.694 214.054C378.546 221.266 389.655 221.266 396.507 214.054Z" fill="white" stroke="#263238" stroke-linecap="round" stroke-linejoin="round"/>
<path d="M380.078 192.694L373.197 136.665C373.16 136.375 373.182 136.079 373.26 135.797C373.339 135.516 373.473 135.255 373.653 135.031C373.833 134.807 374.056 134.626 374.307 134.498C374.558 134.37 374.831 134.299 375.11 134.29L385.623 133.797C385.897 133.788 386.169 133.836 386.424 133.939C386.679 134.043 386.912 134.199 387.108 134.399C387.305 134.599 387.461 134.839 387.567 135.104C387.674 135.369 387.729 135.653 387.729 135.941L387.096 192.347L380.078 192.694Z" fill="#F55078" stroke="#263238" stroke-linecap="round" stroke-linejoin="round"/>
<path d="M384.096 212.351C390.054 212.351 394.885 207.266 394.885 200.994C394.885 194.722 390.054 189.638 384.096 189.638C378.137 189.638 373.307 194.722 373.307 200.994C373.307 207.266 378.137 212.351 384.096 212.351Z" fill="#F55078" stroke="#263238" stroke-linecap="round" stroke-linejoin="round"/>
<path d="M256.805 350.946H268.323C271.488 350.946 274.522 352.269 276.76 354.624C278.997 356.979 280.254 360.174 280.254 363.505V367.503H244.888V363.505C244.888 360.176 246.143 356.984 248.378 354.629C250.612 352.275 253.643 350.95 256.805 350.946V350.946Z" fill="#263238" stroke="#263238" stroke-linecap="round" stroke-linejoin="round"/>
<path d="M369.316 322.135C369.316 322.135 301.639 343.283 296.836 343.283C292.034 343.283 278.493 343.732 269.768 341.835C261.044 339.937 254.48 338.619 250.984 342.298C247.489 345.978 244.874 358.391 244.874 358.391C246.67 358.589 248.482 358.268 250.117 357.464C253.613 356.088 255.787 347.817 255.787 347.817C255.787 347.817 264.966 346.89 268.888 351.033C272.81 355.176 272.383 355.625 269.768 358.391C267.154 361.158 259.282 361.607 257.535 364.823C255.787 368.039 261.897 367.126 264.525 366.662C267.154 366.199 274.158 365.735 278.493 363.447C283.432 360.93 288.542 358.804 293.781 357.088C295.956 356.639 338.753 354.799 352.294 354.799C365.835 354.799 383.298 351.12 392.022 348.368C396.965 346.91 401.572 344.406 405.563 341.009C405.563 341.009 375 322.135 369.316 322.135Z" fill="white" stroke="#263238" stroke-linecap="round" stroke-linejoin="round"/>
<path d="M246.03 338.981C246.03 338.981 252.498 333.679 258.966 333.679" stroke="#263238" stroke-linecap="round" stroke-linejoin="round"/>
<path d="M244.599 334.447C248.398 330.911 253.193 328.784 258.25 328.392" stroke="#263238" stroke-linecap="round" stroke-linejoin="round"/>
<path d="M402.508 275.709L385.486 312.488C385.486 312.488 381.123 311.56 380.243 314.327C379.616 316.108 378.564 317.69 377.188 318.919L369.33 322.135C369.33 322.135 376.761 328.103 386.366 336.837C395.972 345.572 402.949 346.977 402.949 346.977C402.949 346.977 420.425 329.971 423.04 311.126C425.654 292.281 409.925 267.438 402.508 275.709Z" fill="#F55078" stroke="#263238" stroke-linecap="round" stroke-linejoin="round"/>
<path d="M283.777 435.931C277.419 423.387 279.016 404.99 323.506 396.618C367.995 388.245 397.596 389.593 397.596 389.593L405.591 378.931C405.591 378.931 502.29 390.766 503.873 393.272C505.455 395.778 503.006 415 501.492 425.053C499.978 435.105 498.534 443.753 486.616 447.939C474.699 452.125 421.237 450.981 393.426 447.635C365.615 444.289 321.868 434.265 321.868 434.265" fill="#6B6B6B"/>
<path d="M283.777 435.931C277.419 423.387 279.016 404.99 323.506 396.618C367.995 388.245 397.596 389.593 397.596 389.593L405.591 378.931C405.591 378.931 502.29 390.766 503.873 393.272C505.455 395.778 503.006 415 501.492 425.053C499.978 435.105 498.534 443.753 486.616 447.939C474.699 452.125 421.237 450.981 393.426 447.635C365.615 444.289 321.868 434.265 321.868 434.265" stroke="#263238" stroke-linecap="round" stroke-linejoin="round"/>
<path d="M310.818 451.314C312.491 453.502 314.298 455.573 316.226 457.514" stroke="#263238" stroke-linecap="round" stroke-linejoin="round"/>
<path d="M436.691 423.72C404.93 423.155 341.601 423.72 329.065 423.72C312.552 423.72 301.543 421.793 302.465 433.382C302.831 436.714 303.827 439.935 305.396 442.855" stroke="#263238" stroke-linecap="round" stroke-linejoin="round"/>
<path d="M489.616 402.47C489.616 402.47 485.942 408.264 486.864 411.161C487.786 414.058 497.873 416.955 491.447 420.823C485.02 424.69 475.855 420.823 475.855 425.646C475.855 430.47 480.438 435.308 474.011 435.308C467.585 435.308 459.342 426.617 454.746 424.69C451.913 424.189 449.044 423.951 446.172 423.981" stroke="#263238" stroke-linecap="round" stroke-linejoin="round"/>
<path d="M404.531 391.273C404.531 391.273 442.911 400.254 461.034 416.521" stroke="#263238" stroke-linecap="round" stroke-linejoin="round"/>
<path d="M414.123 392.388C414.123 392.388 462.631 400.804 482.35 421.011" stroke="#263238" stroke-linecap="round" stroke-linejoin="round"/>
<path d="M409.237 216.378C409.237 216.378 393.508 255.488 389.146 277.057C384.784 298.625 393.082 308.765 396.563 319.339C400.045 329.913 411.412 357.001 411.412 357.001C411.412 357.001 402.687 368.951 401.779 376.31C400.871 383.668 403.086 382.741 433.223 391.925C453.782 398.124 475.161 400.766 496.524 399.747C502.634 399.283 506.157 394.228 507.437 390.549C508.717 386.869 509.185 350.106 504.382 322.062C499.579 294.019 481.236 253.127 455.035 233.818C428.833 214.509 413.159 213.162 409.237 216.378Z" fill="white" stroke="#263238" stroke-linecap="round" stroke-linejoin="round"/>
<path d="M409.237 216.378C409.237 216.378 393.508 255.488 389.146 277.057C386.518 290.093 388.499 298.929 391.238 306.23L420.233 215.74C414.577 214.509 410.875 215.045 409.237 216.378Z" fill="#F55078" stroke="#263238" stroke-linecap="round" stroke-linejoin="round"/>
<path d="M481.456 296.655C483.12 296.892 484.8 296.984 486.479 296.931" stroke="#263238" stroke-linecap="round" stroke-linejoin="round"/>
<path d="M447.411 276.39C447.411 276.39 459.796 289.876 474.658 295.004" stroke="#263238" stroke-linecap="round" stroke-linejoin="round"/>
<path d="M453.301 296.25C453.301 296.25 467.612 316.094 487.126 319.527" stroke="#263238" stroke-linecap="round" stroke-linejoin="round"/>
<path d="M442.897 270.915C451.172 274.306 460.17 275.253 468.92 273.653" stroke="#263238" stroke-linecap="round" stroke-linejoin="round"/>
<path d="M467.915 363.91C470.359 366.057 472.658 368.38 474.795 370.863" stroke="#263238" stroke-linecap="round" stroke-linejoin="round"/>
<path d="M432.494 346.224C443.748 348.599 454.396 353.462 463.732 360.492" stroke="#263238" stroke-linecap="round" stroke-linejoin="round"/>
<path d="M410.338 320.701C399.046 325.137 387.325 328.251 375.385 329.986C357.358 332.303 326.244 333.955 324.469 333.868C322.694 333.781 301.763 323.525 301.763 323.525C301.763 323.525 292.529 315.24 288.607 315.037C284.685 314.834 274.585 315.718 273.621 317.514C272.658 319.31 276.993 320.411 276.993 320.411L286.626 320.889C289.24 321.019 294.992 329.131 294.992 329.131C294.992 329.131 285.47 327.277 281.974 327.103C278.479 326.929 270.8 332.521 270.732 333.897C270.663 335.273 272.837 335.838 275.011 335.954C277.186 336.07 283.474 332.695 283.474 332.695L293.795 336.432C293.795 336.432 283.97 341.009 282.497 344.616C281.025 348.223 279.525 352.742 279.525 352.742C279.525 352.742 279.855 355.06 283.406 353.857C286.956 352.655 288.538 346.76 288.538 346.76L299.176 343.602C299.176 343.602 291.965 348.121 291.428 350.396C290.892 352.67 289.35 357.841 291.098 357.928C292.846 358.015 297.511 351.352 297.511 351.352L305.492 348.99L316.391 349.541C319.034 349.592 321.676 349.413 324.29 349.005C346.708 353.262 369.349 356.092 392.091 357.479C425.682 359.174 438.645 352.916 447.714 345.557C456.782 338.199 437.049 320.628 429.631 320.252C422.214 319.875 410.338 320.701 410.338 320.701Z" fill="white" stroke="#263238" stroke-linecap="round" stroke-linejoin="round"/>
<path d="M418.1 236.411C418.1 236.411 406.705 246.435 405.962 262.962C405.219 279.49 412.458 312.517 412.458 312.517L411.329 317.992L405.935 321.396C405.935 321.396 410.338 330.362 426.577 338.532C442.815 346.702 457.044 350.193 459.796 348.483C462.548 346.774 458.489 329.102 459.053 307.041C459.401 287.913 456.874 268.847 451.567 250.549C447.741 238.395 431.833 232.529 427.017 232.746" fill="#F55078"/>
<path d="M418.1 236.411C418.1 236.411 406.705 246.435 405.962 262.962C405.219 279.49 412.458 312.517 412.458 312.517L411.329 317.992L405.935 321.396C405.935 321.396 410.338 330.362 426.577 338.532C442.815 346.702 457.044 350.193 459.796 348.483C462.548 346.774 458.489 329.102 459.053 307.041C459.401 287.913 456.874 268.847 451.567 250.549C447.741 238.395 431.833 232.529 427.017 232.746" stroke="#263238" stroke-linecap="round" stroke-linejoin="round"/>
<path d="M411.329 317.977C411.329 317.977 424.333 330.131 434.723 331.565" stroke="#263238" stroke-linecap="round" stroke-linejoin="round"/>
<path d="M295.584 311.763L311.382 320.831" stroke="#263238" stroke-linecap="round" stroke-linejoin="round"/>
<path d="M299.891 307.983L314.244 316.297" stroke="#263238" stroke-linecap="round" stroke-linejoin="round"/>
<path d="M256.489 115.184L340.583 115.184C345.067 115.184 348.702 111.357 348.702 106.637V80.9695C348.702 76.2495 345.067 72.4232 340.583 72.4232L256.489 72.4232C252.005 72.4232 248.37 76.2495 248.37 80.9695V106.637C248.37 111.357 252.005 115.184 256.489 115.184Z" fill="#263238" stroke="#263238" stroke-miterlimit="10"/>
<path d="M272.19 105.001C278.384 105.001 283.406 99.7151 283.406 93.1951C283.406 86.6751 278.384 81.3896 272.19 81.3896C265.996 81.3896 260.975 86.6751 260.975 93.1951C260.975 99.7151 265.996 105.001 272.19 105.001Z" fill="#F55078"/>
<path d="M276.836 93.3543C276.836 96.3651 274.554 98.7504 271.805 98.7504C269.056 98.7504 266.774 96.3651 266.774 93.3543C266.774 90.3436 269.056 87.9583 271.805 87.9583C274.554 87.9583 276.836 90.3436 276.836 93.3543Z" fill="#696969" stroke="#263238"/>
<path d="M324.73 105.001C330.924 105.001 335.946 99.7151 335.946 93.1951C335.946 86.6751 330.924 81.3896 324.73 81.3896C318.536 81.3896 313.515 86.6751 313.515 93.1951C313.515 99.7151 318.536 105.001 324.73 105.001Z" fill="#808080"/>
<path d="M333.386 85.3441L331.404 83.3307L324.414 90.9644L317.409 83.3307L315.428 85.3441L322.501 93.0503L315.428 100.756L317.409 102.77L324.414 95.1362L331.404 102.77L333.386 100.756L326.327 93.0503L333.386 85.3441Z" fill="#263238"/>
<path d="M298.612 105.001C304.806 105.001 309.827 99.7151 309.827 93.1951C309.827 86.6751 304.806 81.3896 298.612 81.3896C292.418 81.3896 287.396 86.6751 287.396 93.1951C287.396 99.7151 292.418 105.001 298.612 105.001Z" fill="#808080"/>
<path d="M307.267 85.3441L305.286 83.3307L298.295 90.9644L291.304 83.3307L289.323 85.3441L296.382 93.0503L289.323 100.756L291.304 102.77L298.295 95.1362L305.286 102.77L307.267 100.756L300.208 93.0503L307.267 85.3441Z" fill="#263238"/>
<path d="M314.231 114.995L320.423 124.411L312.854 125.859L322.487 142.517L305.286 123.687L308.038 120.79L300.469 112.098" fill="#263238"/>
<path d="M157.629 374.745H221.356C222.579 374.745 223.752 374.234 224.616 373.324C225.481 372.414 225.966 371.18 225.966 369.893C225.966 368.606 225.481 367.371 224.616 366.461C223.752 365.551 222.579 365.04 221.356 365.04H157.629C155.947 365.041 154.288 364.631 152.782 363.845C151.275 363.058 149.962 361.915 148.946 360.505C147.929 359.095 147.236 357.457 146.92 355.718C146.605 353.979 146.677 352.187 147.129 350.482L169.738 265.208C169.924 264.587 169.989 263.934 169.929 263.286C169.87 262.639 169.688 262.01 169.393 261.438C169.098 260.867 168.698 260.363 168.214 259.957C167.731 259.552 167.175 259.253 166.58 259.078C165.985 258.903 165.362 258.856 164.749 258.94C164.136 259.023 163.546 259.235 163.012 259.564C162.479 259.893 162.014 260.331 161.644 260.852C161.275 261.374 161.009 261.968 160.863 262.6L138.253 347.875C137.416 351.022 137.282 354.33 137.863 357.54C138.443 360.75 139.722 363.775 141.599 366.377C143.476 368.98 145.899 371.09 148.681 372.542C151.462 373.994 154.524 374.748 157.629 374.745Z" fill="#828282" stroke="#263238" stroke-linecap="round" stroke-linejoin="round"/>
<path d="M187.912 349.401L202.341 347.582L179.996 151.204L165.567 153.023L187.912 349.401Z" fill="white" stroke="#263238" stroke-linecap="round" stroke-linejoin="round"/>
<path d="M189.623 147.529L232.737 128.22" stroke="#263238" stroke-linecap="round" stroke-linejoin="round"/>
<path d="M207.045 345.5L236.411 356.117" stroke="#263238" stroke-linecap="round" stroke-linejoin="round"/>
<path d="M165.527 153.048C165.527 153.048 139.904 249.317 187.903 349.425L165.527 153.048Z" fill="#263238" stroke="#263238" stroke-linecap="round" stroke-linejoin="round"/>
<path d="M269.452 357.957H261.002V361.766H269.452V357.957Z" fill="white" stroke="#263238" stroke-linecap="round" stroke-linejoin="round"/>
<path d="M280.323 357.957H271.874V361.766H280.323V357.957Z" fill="white" stroke="#263238" stroke-linecap="round" stroke-linejoin="round"/>
<path d="M291.181 357.957H282.731V361.766H291.181V357.957Z" fill="white" stroke="#263238" stroke-linecap="round" stroke-linejoin="round"/>
<path d="M302.038 357.957H293.589V361.766H302.038V357.957Z" fill="white" stroke="#263238" stroke-linecap="round" stroke-linejoin="round"/>
<path d="M312.896 357.957H304.446V361.766H312.896V357.957Z" fill="white" stroke="#263238" stroke-linecap="round" stroke-linejoin="round"/>
<path d="M323.767 357.957H315.318V361.766H323.767V357.957Z" fill="white" stroke="#263238" stroke-linecap="round" stroke-linejoin="round"/>
<path d="M334.625 357.957H326.175V361.766H334.625V357.957Z" fill="white" stroke="#263238" stroke-linecap="round" stroke-linejoin="round"/>
<path d="M345.482 357.957H337.033V361.766H345.482V357.957Z" fill="white" stroke="#263238" stroke-linecap="round" stroke-linejoin="round"/>
<path d="M356.188 360.883H256.172V368.111H356.188V360.883Z" fill="white" stroke="#263238" stroke-linecap="round" stroke-linejoin="round"/>
<path d="M107.882 607.205H97.9742L96.0476 393.779H109.809L107.882 607.205Z" fill="white" stroke="#263238" stroke-linecap="round" stroke-linejoin="round"/>
<path d="M375.757 607.205H365.849L363.922 393.779H377.683L375.757 607.205Z" fill="white" stroke="#263238" stroke-linecap="round" stroke-linejoin="round"/>
<path d="M383.422 374.267H90.5431V410.133H383.422V374.267Z" fill="#263238" stroke="#263238" stroke-linecap="round" stroke-linejoin="round"/>
<path d="M382.926 383.436H90.8458V394.011H382.926V383.436Z" fill="#263238"/>
<path d="M388.114 368.01H76.4792V384.711H388.114V368.01Z" fill="white" stroke="#263238" stroke-linecap="round" stroke-linejoin="round"/>
<path d="M131.909 537.371C131.909 537.371 103.011 488.397 100.258 458.832C97.5062 429.268 118.685 447.751 118.685 447.751C118.685 447.751 88.8367 335.041 112.533 327.654C136.23 320.266 150.335 457.036 150.335 457.036C150.335 457.036 167.014 409.915 174.913 424.69C182.812 439.465 165.28 518.005 165.28 518.005C165.28 518.005 184.545 493.988 186.348 508.763C188.151 523.538 167.922 554.956 167.922 554.956" fill="#F55078"/>
<path d="M186.321 529.969H115.231L124.107 606.654H177.431L186.321 529.969Z" fill="#263238"/>
<path d="M170.523 540.138C170.523 540.138 186.321 514.267 185.44 496.682C184.559 479.097 172.271 508.69 172.271 508.69C172.271 508.69 182.812 449.562 170.523 438.48C158.234 427.399 155.606 492.076 155.606 492.076C155.606 492.076 128.386 365.533 113.469 393.301C98.5521 421.069 133.657 490.352 133.657 490.352C133.657 490.352 122.249 467.248 120.487 489.425C118.726 511.602 127.519 541.051 127.519 541.051" stroke="#263238" stroke-miterlimit="10"/>
<path d="M594.655 607.205H601.99" stroke="#263238" stroke-linecap="round" stroke-linejoin="round"/>
<path d="M31.3701 607.205H578.142" stroke="#263238" stroke-linecap="round" stroke-linejoin="round"/>
</g>
<defs>
<filter id="filter0_d_40_99" x="-19" y="-26" width="665" height="684" filterUnits="userSpaceOnUse" color-interpolation-filters="sRGB">
<feFlood flood-opacity="0" result="BackgroundImageFix"/>
<feColorMatrix in="SourceAlpha" type="matrix" values="0 0 0 0 0 0 0 0 0 0 0 0 0 0 0 0 0 0 127 0" result="hardAlpha"/>
<feOffset dy="4"/>
<feGaussianBlur stdDeviation="15"/>
<feComposite in2="hardAlpha" operator="out"/>
<feColorMatrix type="matrix" values="0 0 0 0 0 0 0 0 0 0 0 0 0 0 0 0 0 0 0.5 0"/>
<feBlend mode="normal" in2="BackgroundImageFix" result="effect1_dropShadow_40_99"/>
<feBlend mode="normal" in="SourceGraphic" in2="effect1_dropShadow_40_99" result="shape"/>
</filter>
</defs>
</svg>
