<svg width="80" height="80" viewBox="0 0 80 80" fill="none" xmlns="http://www.w3.org/2000/svg">
<path d="M53.3332 36.6667C58.8666 36.6667 63.2999 32.2 63.2999 26.6667C63.2999 21.1333 58.8666 16.6667 53.3332 16.6667C47.7999 16.6667 43.3332 21.1333 43.3332 26.6667C43.3332 32.2 47.7999 36.6667 53.3332 36.6667ZM26.6666 36.6667C32.1999 36.6667 36.6332 32.2 36.6332 26.6667C36.6332 21.1333 32.1999 16.6667 26.6666 16.6667C21.1333 16.6667 16.6666 21.1333 16.6666 26.6667C16.6666 32.2 21.1333 36.6667 26.6666 36.6667ZM26.6666 43.3333C18.8999 43.3333 3.33325 47.2333 3.33325 55V63.3333H49.9999V55C49.9999 47.2333 34.4332 43.3333 26.6666 43.3333ZM53.3332 43.3333C52.3666 43.3333 51.2666 43.4 50.0999 43.5C53.9666 46.3 56.6666 50.0667 56.6666 55V63.3333H76.6666V55C76.6666 47.2333 61.0999 43.3333 53.3332 43.3333Z" fill="white" fill-opacity="1"/>
</svg>
